<svg xmlns="http://www.w3.org/2000/svg" width="1600" height="420" viewBox="0 0 1600 420" fill="none">
  <defs>
    <linearGradient id="g1" x1="70" y1="360" x2="1440" y2="40" gradientUnits="userSpaceOnUse">
      <stop offset="0%" stop-color="#ffb7d8"/>
      <stop offset="35%" stop-color="#ff2f7e"/>
      <stop offset="70%" stop-color="#ff0048"/>
      <stop offset="100%" stop-color="#8d2bff"/>
    </linearGradient>
    <linearGradient id="g2" x1="110" y1="320" x2="520" y2="60" gradientUnits="userSpaceOnUse">
      <stop offset="0%" stop-color="#6e0b56"/>
      <stop offset="50%" stop-color="#ff165d"/>
      <stop offset="100%" stop-color="#b23cff"/>
    </linearGradient>
    <filter id="glow" x="-50%" y="-50%" width="200%" height="200%">
      <feGaussianBlur stdDeviation="4" result="blur"/>
      <feMerge>
        <feMergeNode in="blur"/>
        <feMergeNode in="SourceGraphic"/>
      </feMerge>
    </filter>
    <style>
      .brand { font-family: Orbitron, Eurostile, Rajdhani, Arial, sans-serif; font-weight: 800; letter-spacing: -1px; }
      .sub { font-family: Inter, Arial, sans-serif; font-weight: 600; letter-spacing: 0.35px; }
    </style>
  </defs>

  <g transform="translate(36 28)">
    <g filter="url(#glow)">
      <g stroke="url(#g1)" stroke-width="18" stroke-linecap="round" stroke-linejoin="round">
        <path d="M 210 24 C 250 37, 289 61, 321 93 C 338 110, 349 131, 353 155" />
        <g transform="rotate(60 210 170)"><path d="M 210 24 C 250 37, 289 61, 321 93 C 338 110, 349 131, 353 155" /></g>
        <g transform="rotate(120 210 170)"><path d="M 210 24 C 250 37, 289 61, 321 93 C 338 110, 349 131, 353 155" /></g>
        <g transform="rotate(180 210 170)"><path d="M 210 24 C 250 37, 289 61, 321 93 C 338 110, 349 131, 353 155" /></g>
        <g transform="rotate(240 210 170)"><path d="M 210 24 C 250 37, 289 61, 321 93 C 338 110, 349 131, 353 155" /></g>
        <g transform="rotate(300 210 170)"><path d="M 210 24 C 250 37, 289 61, 321 93 C 338 110, 349 131, 353 155" /></g>
      </g>

      <polygon points="210,48 305.3,103 305.3,213 210,268 114.7,213 114.7,103" stroke="url(#g2)" stroke-width="15" stroke-linejoin="round"/>
      <polygon points="210,78 280.1,118.5 280.1,199.5 210,240 139.9,199.5 139.9,118.5" stroke="url(#g1)" stroke-width="13" stroke-linejoin="round"/>
      <polygon points="210,106 257.1,133 257.1,187 210,214 162.9,187 162.9,133" stroke="url(#g2)" stroke-width="12" stroke-linejoin="round"/>
      <polygon points="210,127 239,144 239,178 210,195 181,178 181,144" stroke="url(#g1)" stroke-width="10" stroke-linejoin="round"/>
      <polygon points="210,138 229,149 229,171 210,182 191,171 191,149" fill="url(#g2)" opacity="0.22" stroke="url(#g1)" stroke-width="5" stroke-linejoin="round"/>

      <g stroke="#ffd1ea" stroke-width="6" stroke-linecap="round">
        <line x1="210" y1="145" x2="210" y2="175"/>
        <line x1="197" y1="152" x2="223" y2="168"/>
        <line x1="197" y1="168" x2="223" y2="152"/>
      </g>
    </g>
  </g>

  <g transform="translate(430 80)">
    <text x="0" y="168" class="brand" font-size="118" fill="url(#g1)">ConduitScore</text>
    <text x="4" y="240" class="sub" font-size="42" fill="#b9b9c4">powered by conduit</text>
  </g>
</svg>
