<svg xmlns="http://www.w3.org/2000/svg" viewBox="0 0 240 240" fill="none" role="img" aria-label="ConduitScore mark">
  <defs>
    <radialGradient id="rg" cx="50%" cy="50%" r="50%">
      <stop offset="0%"   stop-color="#FF2060"/>
      <stop offset="30%"  stop-color="#CC0040"/>
      <stop offset="60%"  stop-color="#8A001E"/>
      <stop offset="100%" stop-color="#3A0008"/>
    </radialGradient>
    <radialGradient id="cg" cx="50%" cy="50%" r="50%">
      <stop offset="0%"   stop-color="#FFFFFF"/>
      <stop offset="50%"  stop-color="#FF80CC"/>
      <stop offset="100%" stop-color="#FF204080"/>
    </radialGradient>
    <filter id="glow">
      <feGaussianBlur stdDeviation="2.5" result="blur"/>
      <feMerge><feMergeNode in="blur"/><feMergeNode in="SourceGraphic"/></feMerge>
    </filter>
  </defs>

  <!-- ── Ring 5 (outermost) R=92 ── -->
  <!-- sides -->
  <path stroke="#3A0008" stroke-width="13" stroke-linecap="round"
    d="M120 28 L194.6 71 M194.6 71 L194.6 157 M194.6 157 L120 200 M120 200 L45.4 157 M45.4 157 L45.4 71 M45.4 71 L120 28"/>
  <!-- corner loops (small arcs that peek outward at each vertex) -->
  <path stroke="#3A0008" stroke-width="10" stroke-linecap="round" fill="none"
    d="M110.3 33.5 A10 10 0 1 0 129.7 33.5
       M189.5 62.8 A10 10 0 1 0 199.4 79.5
       M199.4 148.5 A10 10 0 1 0 189.5 165.2
       M129.7 194.5 A10 10 0 1 0 110.3 194.5
       M40.6 165.2 A10 10 0 1 0 50.5 148.5
       M50.5 79.5 A10 10 0 1 0 40.6 62.8"/>

  <!-- ── Ring 4  R=72 ── -->
  <path stroke="#620016" stroke-width="12" stroke-linecap="round"
    d="M120 48 L182.4 84 M182.4 84 L182.4 156 M182.4 156 L120 192 M120 192 L57.6 156 M57.6 156 L57.6 84 M57.6 84 L120 48"/>
  <path stroke="#620016" stroke-width="9" stroke-linecap="round" fill="none"
    d="M111.3 53 A9 9 0 1 0 128.7 53
       M177.7 76.5 A9 9 0 1 0 186.9 91.8
       M186.9 148.2 A9 9 0 1 0 177.7 163.5
       M128.7 187 A9 9 0 1 0 111.3 187
       M62.3 163.5 A9 9 0 1 0 53.1 148.2
       M53.1 91.8 A9 9 0 1 0 62.3 76.5"/>

  <!-- ── Ring 3  R=54 ── -->
  <path stroke="#9A0028" stroke-width="11" stroke-linecap="round"
    d="M120 66 L166.8 93 M166.8 93 L166.8 147 M166.8 147 L120 174 M120 174 L73.2 147 M73.2 147 L73.2 93 M73.2 93 L120 66"/>
  <path stroke="#9A0028" stroke-width="8.5" stroke-linecap="round" fill="none"
    d="M112.2 70.5 A8 8 0 1 0 127.8 70.5
       M162.9 86.8 A8 8 0 1 0 170.7 100.2
       M170.7 139.8 A8 8 0 1 0 162.9 153.2
       M127.8 169.5 A8 8 0 1 0 112.2 169.5
       M77.1 153.2 A8 8 0 1 0 69.3 139.8
       M69.3 100.2 A8 8 0 1 0 77.1 86.8"/>

  <!-- ── Ring 2  R=38 ── -->
  <path stroke="#CC003C" stroke-width="10" stroke-linecap="round"
    d="M120 82 L152.9 101 M152.9 101 L152.9 139 M152.9 139 L120 158 M120 158 L87.1 139 M87.1 139 L87.1 101 M87.1 101 L120 82"/>
  <path stroke="#CC003C" stroke-width="7.5" stroke-linecap="round" fill="none"
    d="M113 86 A7 7 0 1 0 127 86
       M149.5 95.5 A7 7 0 1 0 156.4 107.5
       M156.4 132.5 A7 7 0 1 0 149.5 144.5
       M127 154 A7 7 0 1 0 113 154
       M90.5 144.5 A7 7 0 1 0 83.6 132.5
       M83.6 107.5 A7 7 0 1 0 90.5 95.5"/>

  <!-- ── Ring 1 (innermost hex)  R=22 ── -->
  <path stroke="#FF1864" stroke-width="9" stroke-linecap="round" fill="#1a000a"
    d="M120 98 L139.1 109 L139.1 131 L120 142 L100.9 131 L100.9 109 Z"/>

  <!-- ── Center asterisk / glow ── -->
  <circle cx="120" cy="120" r="11" fill="#FF1864" filter="url(#glow)"/>
  <g stroke="#FFFFFF" stroke-width="2.2" stroke-linecap="round" filter="url(#glow)">
    <line x1="120" y1="111" x2="120" y2="129"/>
    <line x1="112.2" y1="115.5" x2="127.8" y2="124.5"/>
    <line x1="112.2" y1="124.5" x2="127.8" y2="115.5"/>
  </g>

  <!-- ── Top connector plug ── -->
  <rect x="115" y="22" width="10" height="8" rx="1.5" fill="#CC002E" stroke="#FF3060" stroke-width="1"/>
  <rect x="117.5" y="16" width="5" height="7" rx="1" fill="#FF3060"/>
  <line x1="117.5" y1="19" x2="117.5" y2="22" stroke="#FF3060" stroke-width="1.2" stroke-linecap="round"/>
  <line x1="122.5" y1="19" x2="122.5" y2="22" stroke="#FF3060" stroke-width="1.2" stroke-linecap="round"/>
</svg>