<svg xmlns="http://www.w3.org/2000/svg" viewBox="0 0 64 64" fill="none" role="img" aria-label="ConduitScore favicon mark">
  <path d="M32 6 L52 17.5 L52 40.5 L32 52 L12 40.5 L12 17.5 Z" stroke="#6A0D36" stroke-width="6" stroke-linejoin="round"/>
  <path d="M32 16 L44 23 L44 37 L32 44 L20 37 L20 23 Z" stroke="#C51663" stroke-width="5" stroke-linejoin="round"/>
  <path d="M32 24 L38.5 27.8 L38.5 35.2 L32 39 L25.5 35.2 L25.5 27.8 Z" stroke="#FF4D8E" stroke-width="4" stroke-linejoin="round"/>
  <path d="M32 28 L35.5 30 L35.5 34 L32 36 L28.5 34 L28.5 30 Z" fill="#0F0712"/>
  <path d="M32 25.5 L32 38.5 M26.5 28.8 L37.5 35.2 M26.5 35.2 L37.5 28.8" stroke="#FF6DA5" stroke-width="3" stroke-linecap="round"/>
</svg>
